<svg id="Layer_1" enable-background="new 0 0 513.284 513.284" height="512" viewBox="0 0 513.284 513.284" width="512" xmlns="http://www.w3.org/2000/svg" xmlns:xlink="http://www.w3.org/1999/xlink"><linearGradient id="SVGID_1_" gradientUnits="userSpaceOnUse" x1="256.642" x2="256.642" y1="0" y2="513.284"><stop offset="0" stop-color="#8df49b"/><stop offset="1" stop-color="#589cf9"/></linearGradient><path d="m411.642 0h-310c-21.371 0-41.463 8.323-56.574 23.437-15.11 15.113-23.43 35.206-23.426 56.579l.064 289.988c.008 44.035 35.837 79.916 79.869 79.985 15.903.024 67.878.032 126.751.032 76.958 0 165.659-.013 200.821-.019l62.495 63.282v-433.284c0-44.112-35.888-80-80-80zm40 416.716-61.864-63.716-.136 57 .008.008c-88.818.012-257.03.029-288.013-.019-22.014-.034-39.927-17.976-39.931-39.994l-.064-289.988c-.002-10.686 4.158-20.733 11.713-28.289 7.556-7.556 17.602-11.718 28.287-11.718h310c22.056 0 40 17.944 40 40zm-286-248.716c0-22.091 12.536-40 28-40s28 17.909 28 40-12.536 40-28 40-28-17.909-28-40zm127 0c0-22.091 12.536-40 28-40s28 17.909 28 40-12.536 40-28 40-28-17.909-28-40zm83.94 84.854 26.121 30.293c-2.029 1.749-50.792 42.853-146.061 42.853s-144.032-41.104-146.061-42.854l26.121-30.293-.112-.096c.398.333 40.66 33.243 120.052 33.243s119.654-32.91 120.051-33.242z" fill="url(#SVGID_1_)"/></svg>