<svg width="48" height="65" viewBox="0 0 48 65" fill="none" xmlns="http://www.w3.org/2000/svg">
<path d="M47.9126 12.7418L43.5553 59.621L23.9688 64.8358L4.43626 59.6282L0.0834351 12.7418H47.9126Z" fill="#E44D26"/>
<path d="M23.998 60.8497L39.8249 56.6359L43.5483 16.5754H23.998V60.8497Z" fill="#F16529"/>
<path d="M15.5275 28.0764H23.998V22.326H8.98369L9.12693 23.8687L10.5987 39.7154H23.998V33.9649H16.0747L15.5275 28.0764ZM16.877 42.5907H10.8662L11.705 51.6197L23.9704 54.8895L23.998 54.8823V48.8995L23.9718 48.9061L17.3033 47.1769L16.877 42.5907Z" fill="#EBEBEB"/>
<path d="M4.53337 0H7.57624V2.88719H10.3598V0H13.4029V8.74313H10.36V5.81543H7.57643V8.74313H4.53356V0H4.53337ZM17.4042 2.89943H14.7258V0H23.1277V2.89943H20.4476V8.74313H17.4047V2.89943H17.4046H17.4042ZM24.4611 0H27.6339L29.5856 3.07211L31.5354 0H34.7096V8.74313H31.6791V4.40956L29.5856 7.51821H29.5331L27.4383 4.40956V8.74313H24.4611V0ZM36.2239 0H39.2677V5.85324H43.5468V8.74313H36.2237V0H36.2239Z" fill="white"/>
<path d="M23.9774 39.7154H31.3506L30.6554 47.1733L23.9772 48.9043V54.8868L36.2524 51.6197L36.3424 50.6482L37.7496 35.5091L37.8957 33.9649H23.9774V39.7154ZM23.9774 28.0624V28.0764H38.4405L38.5605 26.784L38.8335 23.8687L38.9765 22.326H23.9774V28.0626V28.0624Z" fill="white"/>
</svg>
