<svg width="77" height="74" viewBox="0 0 77 74" fill="none" xmlns="http://www.w3.org/2000/svg">
<g clip-path="url(#clip0)">
<path d="M57.9733 64.227L38.4997 69.2662L19.0258 64.227L14.5321 17.4398H62.4676L57.9733 64.227Z" fill="#2062AF"/>
<path d="M38.4996 21.2295V65.247L38.5436 65.2586L54.3028 61.1804L57.9403 21.2295H38.4996Z" fill="#3C9CD7"/>
<path d="M27.4476 10.5658V7.78102H31.6753V4.73383H24.2769V13.3464H31.6753V10.5658H27.4476ZM39.2805 7.78102H42.2362V4.73383H34.837V7.78102C35.8269 8.73236 36.3432 9.1877 37.7749 10.5636C36.9379 10.5636 34.837 10.5665 34.837 10.5663V13.3464H42.2362V10.5658L39.2805 7.78102ZM49.7674 7.78102H52.723V4.73383H45.3235V7.78102C46.3134 8.73236 46.83 9.1877 48.2617 10.5636C47.425 10.5636 45.3235 10.5665 45.3235 10.5663V13.3464H52.7231V10.5658L49.7674 7.78102Z" fill="white"/>
<path d="M38.4823 32.9282L24.5444 38.5068L25.0066 44.03L38.4823 38.4928L52.8169 32.6028L53.4112 26.9528L38.4823 32.9282Z" fill="white"/>
<path d="M24.5442 38.5068L25.0064 44.03L38.4821 38.4927V32.9282L24.5442 38.5068Z" fill="url(#paint0_linear)"/>
<path d="M53.4112 26.9529L38.4823 32.9281V38.4927L52.8169 32.6028L53.4112 26.9529Z" fill="url(#paint1_linear)"/>
<path d="M24.5657 38.5068L25.028 44.03L45.7047 44.0933L45.2422 51.4576L38.4384 53.2984L31.8979 51.7113L31.5016 47.1404H25.4243L26.2171 55.9648L38.5044 59.4563L50.7252 56.0281L52.3107 38.5068H24.5657Z" fill="url(#paint2_linear)"/>
<path opacity="0.05" d="M38.4823 38.5068H24.5444L25.0066 44.03L38.4823 44.0714V38.5068ZM38.4823 53.2808L38.4162 53.2986L31.8766 51.7115L31.4803 47.1405H25.4032L26.1958 55.9649L38.4823 59.4564V53.2808Z" fill="black"/>
<path d="M23.2891 26.9529H53.4112L52.8169 32.6029H24.0157L23.2891 26.9529Z" fill="url(#paint3_linear)"/>
<path opacity="0.05" d="M38.4823 26.9529H23.2891L24.0157 32.6029H38.4823V26.9529Z" fill="black"/>
</g>
<defs>
<linearGradient id="paint0_linear" x1="31.5132" y1="44.0301" x2="31.5132" y2="32.9283" gradientUnits="userSpaceOnUse">
<stop offset="0.387" stop-color="#D1D3D4" stop-opacity="0"/>
<stop offset="1" stop-color="#D1D3D4"/>
</linearGradient>
<linearGradient id="paint1_linear" x1="45.9466" y1="38.4929" x2="45.9466" y2="26.953" gradientUnits="userSpaceOnUse">
<stop offset="0.387" stop-color="#D1D3D4" stop-opacity="0"/>
<stop offset="1" stop-color="#D1D3D4"/>
</linearGradient>
<linearGradient id="paint2_linear" x1="24.5657" y1="48.9817" x2="52.3105" y2="48.9817" gradientUnits="userSpaceOnUse">
<stop stop-color="#E8E7E5"/>
<stop offset="1" stop-color="white"/>
</linearGradient>
<linearGradient id="paint3_linear" x1="23.2891" y1="29.7779" x2="53.4111" y2="29.7779" gradientUnits="userSpaceOnUse">
<stop stop-color="#E8E7E5"/>
<stop offset="1" stop-color="white"/>
</linearGradient>
<clipPath id="clip0">
<rect width="77" height="74" fill="white"/>
</clipPath>
</defs>
</svg>
