<svg width="20" height="20" viewBox="0 0 43 57" fill="none" xmlns="http://www.w3.org/2000/svg">
<path d="M10.7522 57C16.685 57 21.5 52.744 21.5 47.5V38H10.7522C4.81934 38 0.00430298 42.256 0.00430298 47.5C0.00430298 52.744 4.81934 57 10.7522 57Z" fill="#00CE84"/>
<path d="M0.00430298 28.5C0.00430298 23.256 4.81934 19 10.7522 19H21.5V38H10.7522C4.81934 38 0.00430298 33.744 0.00430298 28.5Z" fill="#A061FA"/>
<path d="M0.00520325 9.5C0.00520325 4.256 4.82024 0 10.7531 0H21.5009V19H10.7531C4.82024 19 0.00520325 14.744 0.00520325 9.5Z" fill="#EE4E2A"/>
<path d="M21.5008 0H32.2486C38.1814 0 42.9965 4.256 42.9965 9.5C42.9965 14.744 38.1814 19 32.2486 19H21.5008V0Z" fill="#FB7266"/>
<path d="M42.9965 28.5C42.9965 33.744 38.1814 38 32.2486 38C26.3158 38 21.5008 33.744 21.5008 28.5C21.5008 23.256 26.3158 19 32.2486 19C38.1814 19 42.9965 23.256 42.9965 28.5Z" fill="#2EBDFA"/>
</svg>
